<?xml version="1.0" encoding="UTF-8"?>
<svg width="456px" height="60px" viewBox="0 0 456 60" version="1.1" xmlns="http://www.w3.org/2000/svg"
>
    <!-- Generator: Sketch 52.6 (67491) - http://www.bohemiancoding.com/sketch -->
    <title>logo</title>
    <desc>Created with Sketch.</desc>
    <g id="logo" stroke="none" stroke-width="1" fill="none" fill-rule="evenodd">
        <g id="Logotype" transform="translate(123.000000, 13.000000)" fill="#fff">
            <polygon id="Fill-7"
                     points="46.535614 1.16947895 35.4038596 35.4169877 29.5826842 35.4169877 23.2884561 14.2704088 16.9510526 35.4169877 11.1298772 35.4169877 0 1.16947895 7.01882456 1.16947895 14.2554035 23.3015842 20.5064561 1.16947895 25.9859825 1.16947895 32.2370351 23.3447596 39.5562105 1.16947895"></polygon>
            <path d="M66.3561439,23.0449719 C66.3561439,21.9899895 66.1703018,21.0044632 65.8004947,20.0921474 C65.4306877,19.1779544 64.9257228,18.3801474 64.2856,17.6930947 C63.6454772,17.0079193 62.8983544,16.4729193 62.0442316,16.0880947 C61.191986,15.7032702 60.2815474,15.5099193 59.3129158,15.5099193 C58.3461614,15.5099193 57.4357228,15.7032702 56.5816,16.0880947 C55.7293544,16.4729193 54.9803544,17.0079193 54.3421088,17.6930947 C53.701986,18.3801474 53.1951439,19.1779544 52.8253368,20.0921474 C52.4555298,21.0044632 52.2715649,21.9899895 52.2715649,23.0449719 C52.2715649,24.0999544 52.4555298,25.0854807 52.8253368,25.9996737 C53.1951439,26.9138667 53.701986,27.7097965 54.3421088,28.3968491 C54.9803544,29.0820246 55.7293544,29.6170246 56.5816,30.0018491 C57.4357228,30.3866737 58.3461614,30.5800246 59.3129158,30.5800246 C60.2815474,30.5800246 61.191986,30.3866737 62.0442316,30.0018491 C62.8983544,29.6170246 63.6454772,29.0820246 64.2856,28.3968491 C64.9257228,27.7097965 65.4306877,26.9138667 65.8004947,25.9996737 C66.1703018,25.0854807 66.3561439,24.0999544 66.3561439,23.0449719 M72.5208456,23.0449719 C72.5208456,24.8996386 72.1791965,26.6191474 71.4921439,28.2034982 C70.8088456,29.7878491 69.8664947,31.1563228 68.6669684,32.3126737 C67.4693193,33.4690246 66.0633018,34.3832175 64.450793,35.0514982 C62.8382842,35.7235333 61.1187754,36.0595509 59.2922667,36.0595509 C57.4657579,36.0595509 55.7537579,35.7235333 54.1543895,35.0514982 C52.5550211,34.3832175 51.1583895,33.463393 49.9607404,32.2920246 C48.761214,31.1225333 47.8188632,29.7446737 47.1336877,28.1622 C46.4503895,26.5778491 46.1068632,24.8733579 46.1068632,23.0449719 C46.1068632,21.2466211 46.4541439,19.5571474 47.1543368,17.9727965 C47.8545298,16.3884456 48.8025123,15.0049544 50.0020386,13.8204456 C51.2015649,12.6359368 52.6000737,11.7086035 54.1975649,11.0384456 C55.7950561,10.3664105 57.4939158,10.030393 59.2922667,10.030393 C61.1187754,10.030393 62.8382842,10.3664105 64.450793,11.0384456 C66.0633018,11.7086035 67.4693193,12.6209193 68.6669684,13.7772702 C69.8664947,14.9336211 70.8088456,16.3096035 71.4921439,17.9089719 C72.1791965,19.5064632 72.5208456,21.2184632 72.5208456,23.0449719"
                  id="Fill-9"></path>
            <path d="M94.1419789,13.2411439 L90.8437509,18.4634947 C90.2449263,17.8083544 89.5804,17.2301789 88.8539263,16.7308456 C88.1255754,16.2315123 87.3897158,15.9818456 86.6501018,15.9818456 C86.2502596,15.9818456 85.8128737,16.0757053 85.3435754,16.2596702 C84.8742772,16.4455123 84.4293825,16.7514947 84.0164,17.1813719 C83.6034175,17.6074947 83.2523825,18.1725298 82.9670491,18.8708456 C82.683593,19.5710386 82.5390491,20.4345474 82.5390491,21.4613719 L82.5390491,35.4164246 L76.3743474,35.4164246 L76.3743474,10.6731439 L82.5390491,10.6731439 L82.5390491,13.3274947 C83.2805404,12.2706351 84.1008737,11.4578105 85.0019263,10.8871439 C85.8992246,10.3164772 86.9072772,10.0311439 88.0185754,10.0311439 C89.103593,10.0311439 90.1660842,10.323986 91.2098035,10.907793 C92.2497684,11.4934772 93.227786,12.2706351 94.1419789,13.2411439"
                  id="Fill-11"></path>
            <path d="M113.062395,28.8252246 L113.062395,16.9669965 C112.487974,16.5089614 111.772763,16.1466632 110.913009,15.8744702 C110.053254,15.6041544 109.294868,15.4689965 108.637851,15.4689965 C107.605395,15.4689965 106.666798,15.6454526 105.822061,16.0039965 C104.975447,16.358786 104.239588,16.875014 103.608851,17.5432947 C102.978114,18.2153298 102.491921,19.0206456 102.148395,19.9629965 C101.804868,20.9034702 101.632167,21.962207 101.632167,23.1316982 C101.632167,24.2167158 101.804868,25.2228912 102.148395,26.1483474 C102.491921,27.0756807 102.963096,27.8753649 103.565675,28.5474 C104.168254,29.2175579 104.889096,29.7375404 105.735711,30.1092246 C106.580447,30.4809088 107.504026,30.6648737 108.506447,30.6648737 C110.139605,30.6648737 111.658254,30.0510316 113.062395,28.8252246 Z M119.185798,46.1629789 L113.021096,46.1629789 L113.021096,34.1771018 C112.221412,34.8322421 111.342886,35.3109263 110.387395,35.6094 C109.430026,35.9097509 108.423851,36.0599263 107.368868,36.0599263 C105.626833,36.0599263 104.029342,35.7088912 102.574518,35.0105754 C101.119693,34.3122596 99.8619737,33.3699088 98.805114,32.1854 C97.7501316,31.0008912 96.9297982,29.6249088 96.3459912,28.0536982 C95.7584298,26.4843649 95.4674649,24.8286807 95.4674649,23.0885228 C95.4674649,21.2338561 95.8034825,19.5143474 96.4736404,17.9281193 C97.1437982,16.3456456 98.0354649,14.967786 99.1486404,13.7982947 C100.261816,12.6288035 101.530798,11.7089789 102.959342,11.0369439 C104.386009,10.366786 105.855851,10.0307684 107.368868,10.0307684 C108.423851,10.0307684 109.450675,10.1734351 110.451219,10.4587684 C111.449886,10.7441018 112.305886,11.1439439 113.021096,11.6564175 L113.021096,10.6314702 L119.185798,10.6314702 L119.185798,46.1629789 Z"
                  id="Fill-13"></path>
            <path d="M156.516409,29.252286 C154.804409,31.3359702 152.728233,32.9916544 150.287882,34.2193386 C147.847532,35.4451456 145.157514,36.0589877 142.21783,36.0589877 C139.676111,36.0589877 137.29583,35.5953211 135.067602,34.6679877 C132.843128,33.7425316 130.903988,32.4791807 129.257689,30.8798123 C127.611391,29.2823211 126.312374,27.4070053 125.362514,25.2501105 C124.410777,23.0969702 123.937725,20.7748825 123.937725,18.2932333 C123.937725,15.809707 124.410777,13.4913737 125.362514,11.3363561 C126.312374,9.18321579 127.611391,7.29851404 129.257689,5.68412807 C130.903988,4.07349649 132.843128,2.81014561 135.067602,1.89782982 C137.29583,0.983636842 139.676111,0.525601754 142.21783,0.525601754 C145.157514,0.525601754 147.847532,1.13944386 150.287882,2.36900526 C152.728233,3.59481228 154.761233,5.1941807 156.38876,7.16147895 L151.806532,11.8713561 C150.751549,10.3602158 149.388707,9.13816316 147.718005,8.21082982 C146.049181,7.28349649 144.215163,6.81982982 142.21783,6.81982982 C140.618461,6.81982982 139.112953,7.12768947 137.701304,7.73965439 C136.289654,8.35349649 135.052584,9.18321579 133.997602,10.2231807 C132.940742,11.2650228 132.107268,12.4776895 131.493426,13.8630579 C130.879584,15.2465491 130.573602,16.7239 130.573602,18.2932333 C130.573602,19.8344088 130.879584,21.2986193 131.493426,22.6821105 C132.107268,24.0656018 132.940742,25.2801456 133.997602,26.3201105 C135.052584,27.3619526 136.289654,28.1897947 137.701304,28.8036368 C139.112953,29.4174789 140.618461,29.7234614 142.21783,29.7234614 C144.329672,29.7234614 146.199356,29.2447772 147.826882,28.289286 C149.452532,27.3337947 150.807865,26.0723211 151.892882,24.5011105 L156.516409,29.252286 Z"
                  id="Fill-15"></path>
            <path d="M178.522179,23.0449719 C178.522179,21.9899895 178.336337,21.0044632 177.96653,20.0921474 C177.596723,19.1779544 177.091758,18.3801474 176.451635,17.6930947 C175.811512,17.0079193 175.064389,16.4729193 174.210267,16.0880947 C173.358021,15.7032702 172.447582,15.5099193 171.478951,15.5099193 C170.512196,15.5099193 169.601758,15.7032702 168.747635,16.0880947 C167.895389,16.4729193 167.146389,17.0079193 166.508144,17.6930947 C165.868021,18.3801474 165.361179,19.1779544 164.991372,20.0921474 C164.621565,21.0044632 164.4376,21.9899895 164.4376,23.0449719 C164.4376,24.0999544 164.621565,25.0854807 164.991372,25.9996737 C165.361179,26.9138667 165.868021,27.7097965 166.508144,28.3968491 C167.146389,29.0820246 167.895389,29.6170246 168.747635,30.0018491 C169.601758,30.3866737 170.512196,30.5800246 171.478951,30.5800246 C172.447582,30.5800246 173.358021,30.3866737 174.210267,30.0018491 C175.064389,29.6170246 175.811512,29.0820246 176.451635,28.3968491 C177.091758,27.7097965 177.596723,26.9138667 177.96653,25.9996737 C178.336337,25.0854807 178.522179,24.0999544 178.522179,23.0449719 M184.686881,23.0449719 C184.686881,24.8996386 184.345232,26.6191474 183.658179,28.2034982 C182.974881,29.7878491 182.03253,31.1563228 180.833004,32.3126737 C179.635354,33.4690246 178.229337,34.3832175 176.616828,35.0514982 C175.004319,35.7235333 173.284811,36.0595509 171.458302,36.0595509 C169.631793,36.0595509 167.919793,35.7235333 166.320425,35.0514982 C164.721056,34.3832175 163.324425,33.463393 162.126775,32.2920246 C160.927249,31.1225333 159.984898,29.7446737 159.299723,28.1622 C158.616425,26.5778491 158.272898,24.8733579 158.272898,23.0449719 C158.272898,21.2466211 158.620179,19.5571474 159.320372,17.9727965 C160.020565,16.3884456 160.968547,15.0049544 162.168074,13.8204456 C163.3676,12.6359368 164.766109,11.7086035 166.3636,11.0384456 C167.961091,10.3664105 169.659951,10.030393 171.458302,10.030393 C173.284811,10.030393 175.004319,10.3664105 176.616828,11.0384456 C178.229337,11.7086035 179.635354,12.6209193 180.833004,13.7772702 C182.03253,14.9336211 182.974881,16.3096035 183.658179,17.9089719 C184.345232,19.5064632 184.686881,21.2184632 184.686881,23.0449719"
                  id="Fill-17"></path>
            <path d="M225.184316,35.4173632 L219.019614,35.4173632 L219.019614,20.6476088 C219.019614,18.9074509 218.599123,17.5877842 217.75814,16.6867316 C216.915281,15.7894333 215.880947,15.3407842 214.653263,15.3407842 C213.712789,15.3407842 212.819246,15.4890825 211.978263,15.7894333 C211.135404,16.087907 210.31507,16.5816088 209.515386,17.264907 C209.772561,18.2654509 209.900211,19.3917667 209.900211,20.6476088 L209.900211,35.4173632 L203.735509,35.4173632 L203.735509,20.6476088 C203.735509,18.9074509 203.315018,17.5877842 202.472158,16.6867316 C201.631175,15.7894333 200.61186,15.3407842 199.412333,15.3407842 C198.47186,15.3407842 197.64214,15.5041 196.928807,15.8307316 C196.215474,16.1592404 195.473982,16.6829772 194.704333,17.3944333 L194.704333,35.4173632 L188.539632,35.4173632 L188.539632,10.6722053 L194.704333,10.6722053 L194.711842,12.5137316 C195.483368,11.7722404 196.388175,11.1734158 197.431895,10.7153807 C198.473737,10.2611 199.539982,10.0320825 200.625,10.0320825 C201.826404,10.0320825 203.031561,10.3023982 204.247982,10.8430298 C205.460649,11.3855386 206.526895,12.1702053 207.441088,13.198907 C208.725088,12.0575737 210.025982,11.2447491 211.340018,10.7585561 C212.654053,10.2723632 214.097614,10.0320825 215.670702,10.0320825 C216.954702,10.0320825 218.178632,10.2235561 219.334982,10.6083807 C220.491333,10.9932053 221.497509,11.6070474 222.355386,12.449907 C223.213263,13.2927667 223.898439,14.3608895 224.412789,15.6617842 C224.92714,16.9589246 225.184316,18.5226263 225.184316,20.3491351 L225.184316,35.4173632 Z"
                  id="Fill-19"></path>
            <path d="M247.360535,23.1311351 C247.360535,21.9616439 247.189711,20.902907 246.846184,19.9643105 C246.502658,19.0219596 246.022096,18.2147667 245.406377,17.5427316 C244.790658,16.8744509 244.058553,16.3601 243.213816,16.0034333 C242.369079,15.6467667 241.430482,15.4684333 240.399904,15.4684333 C239.739132,15.4684333 238.988254,15.6035912 238.143518,15.873907 C237.298781,16.1461 236.589202,16.5102754 236.016658,16.9664333 L236.016658,28.8246614 C237.362605,30.0523456 238.868114,30.6661877 240.527553,30.6661877 C241.501816,30.6661877 242.412254,30.4803456 243.256991,30.1086614 C244.103605,29.7388544 244.824447,29.2169947 245.428904,28.5468368 C246.029605,27.8748018 246.502658,27.0769947 246.846184,26.1477842 C247.189711,25.2223281 247.360535,24.2161526 247.360535,23.1311351 M253.654763,23.0898368 C253.654763,24.8281175 253.360044,26.4838018 252.776237,28.0531351 C252.188675,29.6243456 251.366465,31.0003281 250.305851,32.1848368 C249.248991,33.3693456 247.989395,34.3116965 246.530816,35.0100123 C245.07036,35.7083281 243.469114,36.0593632 241.723325,36.0593632 C240.63643,36.0593632 239.620868,35.9110649 238.67664,35.6088368 C237.732412,35.3103632 236.8445,34.8316789 236.016658,34.1765386 L236.057956,46.164293 L229.851956,46.164293 L229.851956,10.630907 L236.057956,10.630907 L236.103009,11.9130298 C236.816342,11.3442404 237.664833,10.8880825 238.648482,10.5445561 C239.634009,10.2010298 240.668342,10.0302053 241.75336,10.0302053 C243.2645,10.0302053 244.736219,10.3662228 246.162886,11.0382579 C247.589553,11.7084158 248.860412,12.6282404 249.973588,13.7977316 C251.084886,14.9672228 251.97843,16.3450825 252.648588,17.9294333 C253.318746,19.5137842 253.654763,21.233293 253.654763,23.0898368"
                  id="Fill-21"></path>
            <path d="M271.421268,29.252286 L271.421268,24.6738123 L268.594216,24.6738123 C267.738216,24.6738123 266.931023,24.7301281 266.176391,24.8427596 C265.419882,24.9572684 264.762865,25.1487421 264.207216,25.4209351 C263.649689,25.6931281 263.208549,26.042286 262.88004,26.470286 C262.551532,26.898286 262.388216,27.4126368 262.388216,28.0114614 C262.388216,28.8674614 262.722356,29.5676544 263.394391,30.108286 C264.064549,30.6507947 264.928058,30.9229877 265.984918,30.9229877 C266.897233,30.9229877 267.80204,30.7784439 268.703093,30.4931105 C269.600391,30.2096544 270.507075,29.7947947 271.421268,29.252286 Z M277.58597,35.4169877 L271.421268,35.4169877 L271.421268,34.0898123 C270.336251,34.8331807 269.187409,35.3456544 267.974742,35.6309877 C266.762075,35.9163211 265.513742,36.0589877 264.227865,36.0589877 C263.030216,36.0589877 261.945198,35.8806544 260.976567,35.5239877 C260.004181,35.1673211 259.163198,34.6548474 258.449865,33.9846895 C257.734654,33.3126544 257.186514,32.5204789 256.801689,31.6081632 C256.414988,30.6939702 256.221637,29.6821632 256.221637,28.5671105 C256.221637,27.1704789 256.527619,25.9503035 257.143339,24.9084614 C257.757181,23.8666193 258.590654,22.9956018 259.649391,22.2954088 C260.702496,21.597093 261.937689,21.0771105 263.351216,20.7335842 C264.762865,20.3900579 266.283391,20.2192333 267.910918,20.2192333 L271.462567,20.2192333 C271.462567,18.7644088 270.991391,17.6080579 270.050918,16.7520579 C269.110444,15.8960579 267.753233,15.4680579 265.984918,15.4680579 C265.12704,15.4680579 264.242882,15.6238649 263.328689,15.9392333 C262.416374,16.2527246 261.502181,16.8233912 260.587988,17.6512333 L256.949988,13.9681807 C258.262146,12.7123386 259.782672,11.743707 261.509689,11.0585316 C263.236707,10.3733561 265.012532,10.031707 266.840918,10.031707 C268.552918,10.031707 270.077198,10.3020228 271.41376,10.8426544 C272.750321,11.3851632 273.829707,12.0853561 274.653795,12.9432333 C275.729426,14.0282509 276.485935,15.2390404 276.927075,16.5812333 C277.366339,17.9234263 277.58597,19.6354263 277.58597,21.7172333 L277.58597,35.4169877 Z"
                  id="Fill-23"></path>
            <path d="M304.856891,35.4173632 L298.692189,35.4173632 L298.692189,20.6476088 C298.692189,19.7634509 298.555154,18.986293 298.282961,18.3161351 C298.010768,17.6441 297.644716,17.0865737 297.186681,16.6454333 C296.728646,16.204293 296.204909,15.873907 295.617347,15.6617842 C295.029786,15.445907 294.419698,15.3407842 293.788961,15.3407842 C292.844733,15.3407842 291.911768,15.5041 290.995698,15.8307316 C290.079628,16.1592404 289.248032,16.6829772 288.502786,17.3944333 L288.502786,35.4173632 L282.338084,35.4173632 L282.338084,10.6722053 L288.502786,10.6722053 L288.545961,12.5137316 C288.915768,12.1439246 289.373804,11.8003982 289.914435,11.486907 C290.456944,11.1734158 291.021979,10.9068544 291.605786,10.6947316 C292.19147,10.4807316 292.790295,10.3174158 293.404137,10.2010298 C294.017979,10.0883982 294.609295,10.0320825 295.181839,10.0320825 C296.437681,10.0320825 297.642839,10.2310649 298.797312,10.630907 C299.95554,11.0307491 300.982365,11.6445912 301.88154,12.4705561 C302.780716,13.3002754 303.499681,14.3683982 304.042189,15.6805561 C304.584698,16.9964684 304.856891,18.5507842 304.856891,20.3491351 L304.856891,35.4173632 Z"
                  id="Fill-25"></path>
            <path d="M332.039584,10.6307193 L320.909707,40.0407018 C320.081865,42.2388947 318.996847,43.8232456 317.656532,44.7918772 C316.314339,45.762386 314.71497,46.2485789 312.860304,46.2485789 C312.57497,46.2485789 312.261479,46.2279298 311.917953,46.1828772 C311.578181,46.1415789 311.247795,46.0777544 310.934304,45.9914035 L308.878777,40.2547018 C309.36497,40.4818421 309.864304,40.6620526 310.378654,40.7897018 C310.891128,40.9192281 311.375444,40.9830526 311.833479,40.9830526 C312.803988,40.9830526 313.690023,40.7615439 314.48783,40.3185263 C315.285637,39.8755088 315.899479,39.0570526 316.329356,37.8575263 L317.185356,35.3758772 L307.637953,10.6307193 L314.360181,10.6307193 L320.053707,26.5549474 L325.405584,10.6307193 L332.039584,10.6307193 Z"
                  id="Fill-27"></path>
        </g>
        <g id="Symbol" transform="translate(1.000000, 1.000000)" fill="#fff">
            <path d="M18.5534,10.417 L20.9694,10.417 L33.3694,10.417 L49.1994,32.947 L56.5994,22.405 L43.4294,3.655 C42.0634,1.715 39.8534,0.553 37.4874,0.517 L4.8314,0.511 C1.4454,0.511 -0.5366,4.323 1.4094,7.095 L34.3834,54.035 L41.7914,43.493 L18.5534,10.417 Z"
                  id="Fill-216"></path>
            <path d="M80.1628,0.5166 C77.7948,0.5546 75.5848,1.7166 74.2208,3.6546 L61.0488,22.4046 L68.4508,32.9466 L84.2808,10.4166 L96.6788,10.4166 L99.0968,10.4166 L75.8588,43.4926 L83.2668,54.0346 L116.2388,7.0946 C118.1868,4.3226 116.2048,0.5106 112.8188,0.5106 L80.1628,0.5166 Z"
                  id="Fill-218"></path>
            <path d="M36.53,57.3448 L49.264,57.3448 C50.372,57.3448 51.576,56.9728 52.214,56.0668 L58.824,46.6648 L65.304,55.8988 C65.94,56.8048 67.278,57.3448 68.386,57.3448 L81.136,57.3448 L58.824,25.5648 L36.53,57.3448 Z"
                  id="Fill-220"></path>
        </g>
    </g>
</svg>